<?xml version="1.0" encoding="utf-8"?>
<!-- Uploaded to: SVG Repo, www.svgrepo.com, Generator: SVG Repo Mixer Tools -->
<svg width="800px" height="800px" viewBox="0 0 1024 1024" fill="#000000" class="icon"  version="1.1" xmlns="http://www.w3.org/2000/svg"><path d="M768.406 48.142c-4.42 0-8.074-3.578-8.074-7.998s3.498-7.998 7.902-7.998h0.172c4.406 0 7.998 3.578 7.998 7.998s-3.592 7.998-7.998 7.998zM736.416 48.142c-4.42 0-8.076-3.578-8.076-7.998s3.5-7.998 7.904-7.998h0.172c4.406 0 7.998 3.578 7.998 7.998s-3.592 7.998-7.998 7.998zM704.426 48.142c-4.42 0-8.074-3.578-8.074-7.998s3.498-7.998 7.902-7.998h0.172c4.406 0 7.998 3.578 7.998 7.998s-3.592 7.998-7.998 7.998zM208.094 240.084a7.994 7.994 0 0 1-7.998-7.998V8.154c0-4.42 3.578-7.998 7.998-7.998s7.998 3.578 7.998 7.998v223.932a7.994 7.994 0 0 1-7.998 7.998z" fill="" /><path d="M815.908 16.152H208.094c-4.42 0-7.998-3.578-7.998-7.998s3.578-7.998 7.998-7.998h607.814c4.42 0 7.998 3.578 7.998 7.998s-3.578 7.998-7.998 7.998z" fill="" /><path d="M815.908 240.084a7.994 7.994 0 0 1-7.998-7.998V8.154c0-4.42 3.578-7.998 7.998-7.998s7.998 3.578 7.998 7.998v223.932a7.994 7.994 0 0 1-7.998 7.998zM815.908 1023.844a7.994 7.994 0 0 1-7.998-7.998V791.914c0-4.42 3.578-7.998 7.998-7.998s7.998 3.578 7.998 7.998v223.932a7.994 7.994 0 0 1-7.998 7.998z" fill="" /><path d="M815.908 1023.844H208.094c-4.42 0-7.998-3.578-7.998-7.998s3.578-7.998 7.998-7.998h607.814c4.42 0 7.998 3.578 7.998 7.998s-3.578 7.998-7.998 7.998z" fill="" /><path d="M208.094 1023.844a7.994 7.994 0 0 1-7.998-7.998V791.914c0-4.42 3.578-7.998 7.998-7.998s7.998 3.578 7.998 7.998v223.932a7.994 7.994 0 0 1-7.998 7.998zM512.476 288.068c-4.412 0-8.074-3.576-8.074-7.998 0-4.42 3.498-7.996 7.918-7.996h0.156a8 8 0 1 1 0 15.994z" fill="" /><path d="M847.898 719.938H176.104a7.994 7.994 0 0 1-7.998-7.998V280.07c0-13.23 10.764-23.992 23.994-23.992h639.802c13.23 0 23.992 10.762 23.992 23.992V711.94a7.992 7.992 0 0 1-7.996 7.998z m-663.796-15.996H839.9V280.07a8.012 8.012 0 0 0-7.998-7.996H192.1a8.006 8.006 0 0 0-7.998 7.996v423.872z" fill="" /><path d="M895.882 767.922H128.12c-13.23 0-23.994-10.762-23.994-23.992V711.94a7.994 7.994 0 0 1 7.998-7.998H911.88a7.992 7.992 0 0 1 7.996 7.998v31.99c0 13.23-10.762 23.992-23.994 23.992z m-775.76-47.984v23.992a8.006 8.006 0 0 0 7.998 7.996h767.764a8.012 8.012 0 0 0 7.998-7.996v-23.992H120.122zM815.908 687.946H208.094a7.992 7.992 0 0 1-7.998-7.996V296.066a7.994 7.994 0 0 1 7.998-7.998h607.814a7.994 7.994 0 0 1 7.998 7.998v383.882a7.994 7.994 0 0 1-7.998 7.998z m-599.816-15.994h591.818V304.064H216.092v367.888z" fill="" /><path d="M583.978 735.932h-143.956a7.992 7.992 0 0 1-7.998-7.998 7.992 7.992 0 0 1 7.998-7.996h143.956a7.992 7.992 0 0 1 7.998 7.996 7.994 7.994 0 0 1-7.998 7.998zM767.922 448.02c-13.23 0-23.992-10.762-23.992-23.992s10.762-23.992 23.992-23.992 23.992 10.762 23.992 23.992-10.762 23.992-23.992 23.992z m0-31.99a8.012 8.012 0 0 0-7.996 7.998 8.012 8.012 0 0 0 7.996 7.996 8.012 8.012 0 0 0 7.998-7.996 8.012 8.012 0 0 0-7.998-7.998z" fill="" /><path d="M767.922 416.03a7.992 7.992 0 0 1-7.996-7.998V384.04a7.992 7.992 0 0 1 7.996-7.998 7.994 7.994 0 0 1 7.998 7.998v23.992a7.992 7.992 0 0 1-7.998 7.998zM767.922 599.972a7.99 7.99 0 0 1-7.996-7.996v-23.994a7.992 7.992 0 0 1 7.996-7.998 7.994 7.994 0 0 1 7.998 7.998v23.994a7.992 7.992 0 0 1-7.998 7.996zM767.922 512c-13.23 0-23.992-10.762-23.992-23.992s10.762-23.994 23.992-23.994 23.992 10.764 23.992 23.994S781.152 512 767.922 512z m0-31.99a8.012 8.012 0 0 0-7.996 7.998 8.012 8.012 0 0 0 7.996 7.996 8.012 8.012 0 0 0 7.998-7.996 8.012 8.012 0 0 0-7.998-7.998z" fill="" /><path d="M767.922 480.01a7.992 7.992 0 0 1-7.996-7.998v-31.99a7.992 7.992 0 0 1 7.996-7.998 7.994 7.994 0 0 1 7.998 7.998v31.99a7.992 7.992 0 0 1-7.998 7.998zM767.922 575.98c-13.23 0-23.992-10.762-23.992-23.992s10.762-23.992 23.992-23.992 23.992 10.762 23.992 23.992-10.762 23.992-23.992 23.992z m0-31.99a8.012 8.012 0 0 0-7.996 7.998 8.012 8.012 0 0 0 7.996 7.996 8.012 8.012 0 0 0 7.998-7.996 8.012 8.012 0 0 0-7.998-7.998z" fill="" /><path d="M767.922 543.99a7.992 7.992 0 0 1-7.996-7.998v-31.99a7.992 7.992 0 0 1 7.996-7.998 7.994 7.994 0 0 1 7.998 7.998v31.99a7.992 7.992 0 0 1-7.998 7.998zM735.934 687.946a7.976 7.976 0 0 1-6.968-4.076l-137.348-244.176-152.812 244.488a7.964 7.964 0 0 1-11.02 2.544 7.992 7.992 0 0 1-2.54-11.012l159.952-255.922c1.5-2.404 4.03-3.716 6.966-3.764a7.954 7.954 0 0 1 6.78 4.076l143.956 255.922a7.99 7.99 0 0 1-3.044 10.886 7.9 7.9 0 0 1-3.922 1.034z" fill="" /><path d="M336.046 687.946a7.982 7.982 0 0 1-4.35-1.294 7.994 7.994 0 0 1-2.352-11.06l103.968-159.95c1.54-2.36 4.052-3.624 7.006-3.64a8.034 8.034 0 0 1 6.708 4.14l43.018 78.224a8.008 8.008 0 0 1-3.156 10.874c-3.858 2.124-8.722 0.702-10.856-3.156l-36.582-66.528-96.69 148.752a7.992 7.992 0 0 1-6.714 3.638zM432.026 352.048H256.08a7.992 7.992 0 0 1-7.998-7.998 7.992 7.992 0 0 1 7.998-7.996h175.946a7.992 7.992 0 0 1 7.998 7.996 7.994 7.994 0 0 1-7.998 7.998zM432.026 384.04H256.08a7.992 7.992 0 0 1-7.998-7.998 7.992 7.992 0 0 1 7.998-7.996h175.946a7.992 7.992 0 0 1 7.998 7.996 7.994 7.994 0 0 1-7.998 7.998zM336.054 416.03H256.08a7.992 7.992 0 0 1-7.998-7.998 7.992 7.992 0 0 1 7.998-7.996h79.974a7.992 7.992 0 0 1 7.998 7.996 7.994 7.994 0 0 1-7.998 7.998zM280.072 512c-17.642 0-31.99-14.356-31.99-31.99s14.348-31.99 31.99-31.99 31.99 14.356 31.99 31.99S297.714 512 280.072 512z m0-47.986c-8.818 0-15.996 7.17-15.996 15.996s7.178 15.994 15.996 15.994c8.816 0 15.994-7.168 15.994-15.994s-7.178-15.996-15.994-15.996zM320.044 903.878c-13.964 0-31.974-18.446-31.974-38.036 0-19.352 13.744-33.942 31.974-33.942 18.244 0 32.006 14.59 32.006 33.942 0 19.592-18.034 38.036-32.006 38.036z m0-55.982c-9.412 0-15.98 7.374-15.98 17.948 0 12.122 12.066 22.042 15.98 22.042 3.92 0 16.01-9.92 16.01-22.042 0-10.574-6.584-17.948-16.01-17.948z" fill="" /><path d="M365.724 921.25c-0.546 0-1.1-0.062-1.654-0.172-34.342-7.232-36.014-11.058-36.014-17.2a7.992 7.992 0 0 1 7.998-7.996c2.414 0 4.576 1.062 6.044 2.764 3.782 1.672 15.582 4.732 25.266 6.78a7.996 7.996 0 1 1-1.64 15.824z" fill="" /><path d="M336.054 911.876a7.994 7.994 0 0 1-7.998-7.998v-17.854c0-4.42 3.578-7.998 7.998-7.998s7.998 3.578 7.998 7.998v17.854a7.994 7.994 0 0 1-7.998 7.998zM274.394 921.25a7.996 7.996 0 0 1-1.64-15.824c9.684-2.046 21.486-5.108 25.266-6.78a7.946 7.946 0 0 1 6.044-2.764 7.992 7.992 0 0 1 7.998 7.996c0 6.14-1.672 9.966-36.014 17.2a8.476 8.476 0 0 1-1.654 0.172z" fill="" /><path d="M304.064 911.876a7.994 7.994 0 0 1-7.998-7.998v-17.854c0-4.42 3.578-7.998 7.998-7.998s7.998 3.578 7.998 7.998v17.854a7.994 7.994 0 0 1-7.998 7.998z" fill="" /><path d="M320.06 943.868c-39.692 0-71.978-32.288-71.978-71.976 0-39.692 32.288-71.978 71.978-71.978s71.976 32.288 71.976 71.978c0.002 39.688-32.286 71.976-71.976 71.976z m0-127.962c-30.868 0-55.984 25.118-55.984 55.984 0 30.866 25.118 55.982 55.984 55.982 30.866 0 55.982-25.118 55.982-55.982 0-30.866-25.116-55.984-55.982-55.984z" fill="" /><path d="M512 903.878c-13.962 0-31.99-18.446-31.99-38.036 0-19.352 13.754-33.942 31.99-33.942 18.246 0 31.992 14.59 31.992 33.942 0 19.592-18.028 38.036-31.992 38.036z m0-55.982c-9.418 0-15.994 7.374-15.994 17.948 0 12.122 12.074 22.042 15.994 22.042 3.922 0 15.996-9.92 15.996-22.042 0-10.574-6.576-17.948-15.996-17.948z" fill="" /><path d="M557.692 921.25c-0.546 0-1.11-0.046-1.656-0.172-34.366-7.232-36.038-11.058-36.038-17.2a7.992 7.992 0 0 1 7.998-7.996 7.96 7.96 0 0 1 6.044 2.764c3.78 1.672 15.59 4.732 25.29 6.78a8.008 8.008 0 0 1 6.17 9.482 8 8 0 0 1-7.808 6.342z" fill="" /><path d="M527.996 911.876a7.994 7.994 0 0 1-7.998-7.998v-17.854c0-4.42 3.578-7.998 7.998-7.998s7.998 3.578 7.998 7.998v17.854a7.994 7.994 0 0 1-7.998 7.998zM466.352 921.25a7.996 7.996 0 0 1-1.64-15.824c9.676-2.046 21.468-5.108 25.25-6.78a7.946 7.946 0 0 1 6.044-2.764 7.992 7.992 0 0 1 7.998 7.996c0 6.14-1.672 9.966-35.998 17.2a8.508 8.508 0 0 1-1.654 0.172z" fill="" /><path d="M496.006 911.876a7.994 7.994 0 0 1-7.998-7.998v-17.854c0-4.42 3.578-7.998 7.998-7.998s7.998 3.578 7.998 7.998v17.854a7.994 7.994 0 0 1-7.998 7.998z" fill="" /><path d="M512 943.868c-39.69 0-71.976-32.288-71.976-71.976 0-39.692 32.288-71.978 71.976-71.978 39.692 0 71.978 32.288 71.978 71.978 0 39.688-32.286 71.976-71.978 71.976z m0-127.962c-30.866 0-55.982 25.118-55.982 55.984 0 30.866 25.118 55.982 55.982 55.982 30.868 0 55.984-25.118 55.984-55.982 0-30.866-25.116-55.984-55.984-55.984z" fill="" /><path d="M703.942 903.878c-13.964 0-31.988-18.446-31.988-38.036 0-19.352 13.744-33.942 31.988-33.942 18.246 0 31.992 14.59 31.992 33.942 0 19.592-18.028 38.036-31.992 38.036z m0-55.982c-9.418 0-15.994 7.374-15.994 17.948 0 12.122 12.074 22.042 15.994 22.042 3.922 0 15.996-9.92 15.996-22.042 0-10.574-6.576-17.948-15.996-17.948z" fill="" /><path d="M749.63 921.25a7.38 7.38 0 0 1-1.654-0.172c-34.366-7.232-36.038-11.058-36.038-17.2a7.992 7.992 0 0 1 7.998-7.996 7.96 7.96 0 0 1 6.044 2.764c3.78 1.672 15.588 4.732 25.29 6.78a8.008 8.008 0 0 1 6.17 9.482 8 8 0 0 1-7.81 6.342z" fill="" /><path d="M719.938 911.876a7.992 7.992 0 0 1-7.998-7.998v-17.854a7.994 7.994 0 0 1 7.998-7.998 7.994 7.994 0 0 1 7.998 7.998v17.854a7.994 7.994 0 0 1-7.998 7.998zM658.286 921.25a8 8 0 0 1-1.64-15.824c9.684-2.046 21.476-5.108 25.258-6.78a7.936 7.936 0 0 1 6.044-2.764 7.992 7.992 0 0 1 7.998 7.996c0 6.14-1.672 9.966-35.99 17.2a8.736 8.736 0 0 1-1.67 0.172z" fill="" /><path d="M687.948 911.876a7.994 7.994 0 0 1-7.998-7.998v-17.854c0-4.42 3.578-7.998 7.998-7.998s7.998 3.578 7.998 7.998v17.854a7.994 7.994 0 0 1-7.998 7.998z" fill="" /><path d="M703.942 943.868c-39.674 0-71.96-32.288-71.96-71.976 0-39.692 32.288-71.978 71.96-71.978 39.692 0 71.978 32.288 71.978 71.978 0 39.688-32.288 71.976-71.978 71.976z m0-127.962c-30.866 0-55.966 25.118-55.966 55.984 0 30.866 25.102 55.982 55.966 55.982 30.868 0 55.984-25.118 55.984-55.982 0-30.866-25.118-55.984-55.984-55.984z" fill="" /><path d="M815.908 80.132H208.094c-4.42 0-7.998-3.578-7.998-7.998s3.578-7.998 7.998-7.998h607.814c4.42 0 7.998 3.578 7.998 7.998s-3.578 7.998-7.998 7.998z" fill="" /><path d="M512 64.136c-13.228 0-23.992-10.762-23.992-23.992S498.772 16.152 512 16.152c13.23 0 23.994 10.762 23.994 23.992S525.23 64.136 512 64.136z m0-31.99c-4.412 0-7.996 3.594-7.996 7.998s3.584 7.998 7.996 7.998c4.414 0 7.998-3.594 7.998-7.998s-3.584-7.998-7.998-7.998z" fill="" /><path d="M304.064 48.142H256.08c-4.422 0-7.998-3.578-7.998-7.998s3.576-7.998 7.998-7.998h47.984c4.42 0 7.998 3.578 7.998 7.998s-3.578 7.998-7.998 7.998z" fill="" /><path d="M384.042 48.142h-47.986c-4.42 0-7.998-3.578-7.998-7.998s3.578-7.998 7.998-7.998h47.986c4.42 0 7.996 3.578 7.996 7.998s-3.578 7.998-7.996 7.998z" fill="" /><path d="M735.934 144.114H288.07c-4.422 0-7.998-3.578-7.998-7.998s3.576-7.998 7.998-7.998h447.864c4.42 0 7.996 3.578 7.996 7.998s-3.576 7.998-7.996 7.998z" fill="" /><path d="M671.954 176.104H352.05c-4.422 0-7.998-3.578-7.998-7.998s3.576-7.998 7.998-7.998h319.902c4.42 0 7.996 3.578 7.996 7.998s-3.574 7.998-7.994 7.998z" fill="" /><path d="M591.976 208.094h-159.952c-4.42 0-7.998-3.578-7.998-7.998s3.578-7.998 7.998-7.998h159.952c4.42 0 7.998 3.578 7.998 7.998s-3.578 7.998-7.998 7.998z" fill="" /><path d="M352.05 975.858h-63.98a7.992 7.992 0 0 1-7.998-7.998 7.992 7.992 0 0 1 7.998-7.996h63.98a7.99 7.99 0 0 1 7.996 7.996 7.992 7.992 0 0 1-7.996 7.998z" fill="" /><path d="M543.992 975.858h-63.982a7.992 7.992 0 0 1-7.996-7.998 7.99 7.99 0 0 1 7.996-7.996h63.982a7.99 7.99 0 0 1 7.996 7.996 7.992 7.992 0 0 1-7.996 7.998z" fill="" /><path d="M735.934 975.858h-63.98a7.992 7.992 0 0 1-7.998-7.998 7.992 7.992 0 0 1 7.998-7.996h63.98a7.99 7.99 0 0 1 7.996 7.996 7.992 7.992 0 0 1-7.996 7.998z" fill="" /></svg>