<?xml version="1.0" encoding="utf-8"?>
<!-- Uploaded to: SVG Repo, www.svgrepo.com, Generator: SVG Repo Mixer Tools -->
<svg width="800px" height="800px" viewBox="0 0 1024 1024" fill="#000000" class="icon"  version="1.1" xmlns="http://www.w3.org/2000/svg"><path d="M361.478 1023.792c-14.336 0-28.666-5.466-39.576-16.368L16.574 702.098c-10.534-10.542-16.336-24.6-16.344-39.592 0-14.978 5.802-29.034 16.336-39.56L457.608 181.89c20.794-20.812 59.496-31.666 88.068-24.598l206.468 50.624c24.582 6.038 49.352 27.824 60.192 52.968a8.006 8.006 0 0 1-4.156 10.51c-4.058 1.742-8.776-0.102-10.526-4.17-8.714-20.194-29.924-39.014-49.32-43.776L541.866 172.824c-22.858-5.646-56.288 3.702-72.952 20.374L27.874 634.254c-7.512 7.496-11.652 17.538-11.652 28.252 0 10.728 4.146 20.756 11.66 28.284l305.33 305.328c15.586 15.588 40.958 15.588 56.544 0l441.008-441.046c16.682-16.68 26.02-50.078 20.396-72.952l-37.326-152.234a7.992 7.992 0 0 1 5.842-9.676 8.008 8.008 0 0 1 9.684 5.864l37.326 152.228c7.028 28.564-3.78 67.258-24.614 88.076L401.062 1007.426c-10.908 10.9-25.254 16.366-39.584 16.366z" fill="" /><path d="M663.902 423.99c-16.368 0-32.766-6.232-45.228-18.704-24.958-24.95-24.958-65.54-0.032-90.474 21.99-21.942 56.38-25.012 81.776-7.278a66.824 66.824 0 0 1 8.714 7.222 8.022 8.022 0 0 1 0.094 11.308 7.98 7.98 0 0 1-11.308 0.11 50.418 50.418 0 0 0-6.622-5.504c-19.086-13.322-44.856-11.002-61.348 5.458-18.678 18.694-18.678 49.134 0.032 67.852 18.71 18.708 49.166 18.708 67.876 0 5.654-5.678 9.84-12.69 12.09-20.264 1.248-4.224 5.746-6.654 9.932-5.396a8.02 8.02 0 0 1 5.404 9.94c-2.998 10.106-8.558 19.446-16.086 27.012-12.494 12.478-28.896 18.718-45.294 18.718z" fill="" /><path d="M663.84 392.042a31.68 31.68 0 0 1-22.55-9.356 31.796 31.796 0 0 1-9.372-22.644c0-17.624 14.368-31.97 31.984-31.97 4.438 0 7.996 3.576 7.996 7.996s-3.558 7.998-7.996 7.998c-8.808 0-15.992 7.176-15.992 15.994 0 4.28 1.656 8.292 4.686 11.314a15.734 15.734 0 0 0 11.244 4.678c4.842 0.376 8.902-1.93 11.934-5.318 2.998-3.288 8.058-3.552 11.306-0.624a8.016 8.016 0 0 1 0.624 11.292 31.97 31.97 0 0 1-23.802 10.642l-0.062-0.002zM372.794 964.54a7.972 7.972 0 0 1-5.654-2.344 7.992 7.992 0 0 1 0-11.306l373.164-373.204a7.994 7.994 0 0 1 11.308 0 7.992 7.992 0 0 1 0 11.306L378.448 962.196a7.972 7.972 0 0 1-5.654 2.344zM67.458 659.18a7.976 7.976 0 0 1-5.654-2.344 7.992 7.992 0 0 1 0-11.306l373.188-373.166a7.994 7.994 0 0 1 11.308 0 7.994 7.994 0 0 1 0 11.308L73.112 656.836a7.976 7.976 0 0 1-5.654 2.344zM333.398 812.046a8.004 8.004 0 0 1-6.786-3.766 7.988 7.988 0 0 1 2.538-11.01c10.69-6.714 38.92-28.33 41.122-47.666 0.71-6.324-1.522-11.994-6.848-17.304-14.322-14.32-37.63-12.15-62.338-9.884-27.284 2.544-55.498 5.138-75.122-14.51-5.856-5.84-8.442-13.056-7.488-20.818 2.896-23.568 38.866-45.776 42.958-48.244a8 8 0 0 1 10.962 2.75 7.978 7.978 0 0 1-2.732 10.962c-12.87 7.746-33.844 24.52-35.312 36.482-0.234 1.938-0.118 4.532 2.92 7.56 14.306 14.338 37.646 12.182 62.346 9.9 27.268-2.56 55.498-5.122 75.114 14.494 8.746 8.746 12.698 19.272 11.424 30.424-3.476 30.456-43.924 56.538-48.532 59.41a8.034 8.034 0 0 1-4.226 1.22zM494.184 588.336a7.98 7.98 0 0 1-5.654-2.342l-50.54-50.542c-3.124-3.124-3.124-8.176 0-11.298s8.184-3.124 11.308 0l50.54 50.532a7.994 7.994 0 0 1-5.654 13.65zM562.012 520.484a7.992 7.992 0 0 1-5.652-2.344l-50.508-50.538c-3.124-3.124-3.124-8.184 0-11.308s8.184-3.124 11.308 0l50.508 50.54a7.992 7.992 0 0 1 0 11.306 7.944 7.944 0 0 1-5.656 2.344z" fill="" /><path d="M443.644 537.796a7.972 7.972 0 0 1-5.654-2.344c-21.826-21.816-21.826-57.332 0-79.158 21.834-21.818 57.348-21.818 79.166 0 3.124 3.124 3.124 8.184 0 11.308s-8.184 3.124-11.308 0c-15.594-15.594-40.958-15.58-56.552 0-15.594 15.594-15.594 40.958 0 56.552a7.98 7.98 0 0 1 0 11.298 7.956 7.956 0 0 1-5.652 2.344zM528.122 602.362c-14.344 0-28.674-5.452-39.59-16.368-3.124-3.108-3.124-8.186 0-11.308s8.184-3.124 11.308 0c15.554 15.556 40.934 15.588 56.522 0 15.586-15.586 15.586-40.964 0-56.544a7.992 7.992 0 0 1 0-11.306 7.992 7.992 0 0 1 11.306 0c21.802 21.81 21.834 57.326 0 79.16-10.902 10.898-25.24 16.366-39.546 16.366zM322.084 597.176a7.972 7.972 0 0 1-5.654-2.344 7.992 7.992 0 0 1 0-11.306l56.544-56.544a7.994 7.994 0 0 1 11.308 0 8.004 8.004 0 0 1 0 11.316l-56.544 56.536a7.986 7.986 0 0 1-5.654 2.342zM435.18 710.25a7.972 7.972 0 0 1-5.654-2.344 7.992 7.992 0 0 1 0-11.306l56.538-56.538c3.124-3.124 8.184-3.124 11.308 0s3.124 8.184 0 11.306l-56.536 56.538a7.98 7.98 0 0 1-5.656 2.344z" fill="" /><path d="M435.18 710.25a7.972 7.972 0 0 1-5.654-2.344l-113.096-113.074a7.992 7.992 0 0 1 0-11.306 7.992 7.992 0 0 1 11.306 0l113.098 113.074a7.992 7.992 0 0 1 0 11.306 7.972 7.972 0 0 1-5.654 2.344z" fill="" /><path d="M378.62 653.712a7.976 7.976 0 0 1-5.654-2.344 7.992 7.992 0 0 1 0-11.306l45.238-45.23a7.992 7.992 0 0 1 11.306 0 7.994 7.994 0 0 1 0 11.308l-45.236 45.228a7.966 7.966 0 0 1-5.654 2.344z" fill="" /><path d="M663.902 368.054a8 8 0 0 1-7.808-6.31 7.988 7.988 0 0 1 6.124-9.502C944.026 291.558 1007.746 50.106 1007.746 8.204a8 8 0 0 1 7.996-7.996 7.98 7.98 0 0 1 7.996 7.996c0 43.91-66.032 296.77-358.148 359.672a7.81 7.81 0 0 1-1.688 0.178z" fill="" /><path d="M738.776 192.12a7.992 7.992 0 0 1-4.592-1.446c-3.592-2.53-4.498-7.52-1.938-11.134C835.918 31.38 989.786 0.208 1015.774 0.208c4.436 0 7.996 3.576 7.996 7.996s-3.56 7.996-7.996 7.996c-23.27 0-171.984 31.814-270.44 172.508a7.98 7.98 0 0 1-6.558 3.412z" fill="" /></svg>